<svg width="298" height="76" viewBox="0 0 298 76" fill="none" xmlns="http://www.w3.org/2000/svg">
<path d="M22.08 30.36C20.232 30.36 18.672 29.988 17.4 29.244C16.152 28.476 15.204 27.156 14.556 25.284C13.932 23.388 13.62 20.76 13.62 17.4C13.62 14.04 13.932 11.424 14.556 9.552C15.18 7.656 16.092 6.336 17.292 5.592C18.516 4.824 19.992 4.44 21.72 4.44C22.992 4.44 24.132 4.512 25.14 4.656C26.172 4.8 26.952 4.968 27.48 5.16V7.14H23.16C22.152 7.14 21.252 7.44 20.46 8.04C19.668 8.616 19.044 9.648 18.588 11.136C18.156 12.6 17.94 14.688 17.94 17.4C17.94 20.088 18.168 22.176 18.624 23.664C19.08 25.152 19.728 26.196 20.568 26.796C21.408 27.372 22.392 27.66 23.52 27.66H27.84V29.64C27.312 29.808 26.532 29.964 25.5 30.108C24.492 30.276 23.352 30.36 22.08 30.36ZM90.4617 30V4.8H103.602V7.68H94.7817V15.42H102.522V18.3H94.7817V27.12H103.602V30H90.4617ZM14.52 68V42.8H18.84V65.12H27.66V68H14.52Z" fill="#00FF19"/>
<path d="M30.1828 30V4.8H34.5028V12.72C34.9588 12.36 35.4868 12.096 36.0868 11.928C36.7108 11.736 37.3828 11.64 38.1028 11.64C39.1348 11.64 40.0708 11.796 40.9108 12.108C41.7508 12.42 42.4228 12.996 42.9268 13.836C43.4308 14.652 43.6828 15.84 43.6828 17.4V30H39.3628V17.4C39.3628 16.128 39.0628 15.276 38.4628 14.844C37.8628 14.388 37.2028 14.16 36.4828 14.16C36.0268 14.16 35.6308 14.232 35.2948 14.376C34.9588 14.52 34.6948 14.688 34.5028 14.88V30H30.1828ZM47.8144 30V12H52.1344V30H47.8144ZM47.8144 9.84V5.52H52.1344V9.84H47.8144ZM56.4459 30V4.8H60.7659V30H56.4459ZM70.1175 30.36C68.9175 30.36 67.8495 30.06 66.9135 29.46C66.0015 28.836 65.2815 27.84 64.7535 26.472C64.2495 25.104 63.9975 23.28 63.9975 21C63.9975 18.72 64.2615 16.896 64.7895 15.528C65.3175 14.16 66.0615 13.176 67.0215 12.576C68.0055 11.952 69.1575 11.64 70.4775 11.64C71.1015 11.64 71.6655 11.724 72.1695 11.892C72.6975 12.06 73.1535 12.276 73.5375 12.54V4.8H77.8575V30H74.7975L74.2575 28.92H74.0775C73.6935 29.28 73.1775 29.616 72.5295 29.928C71.9055 30.216 71.1015 30.36 70.1175 30.36ZM71.5575 27.84C72.0135 27.84 72.3855 27.768 72.6735 27.624C72.9855 27.456 73.2735 27.288 73.5375 27.12V14.88C73.3695 14.688 73.1055 14.52 72.7455 14.376C72.4095 14.232 72.0135 14.16 71.5575 14.16C70.9575 14.16 70.4055 14.352 69.9015 14.736C69.4215 15.12 69.0375 15.816 68.7495 16.824C68.4615 17.808 68.3175 19.2 68.3175 21C68.3175 22.8 68.4615 24.192 68.7495 25.176C69.0375 26.16 69.4215 26.856 69.9015 27.264C70.4055 27.648 70.9575 27.84 71.5575 27.84ZM111.868 30.36C110.668 30.36 109.6 30.06 108.664 29.46C107.752 28.836 107.032 27.84 106.504 26.472C106 25.104 105.748 23.28 105.748 21C105.748 18.72 106.012 16.896 106.54 15.528C107.068 14.16 107.812 13.176 108.772 12.576C109.756 11.952 110.908 11.64 112.228 11.64C112.852 11.64 113.416 11.724 113.92 11.892C114.448 12.06 114.904 12.276 115.288 12.54V4.8H119.608V30H116.548L116.008 28.92H115.828C115.444 29.28 114.928 29.616 114.28 29.928C113.656 30.216 112.852 30.36 111.868 30.36ZM113.308 27.84C113.764 27.84 114.136 27.768 114.424 27.624C114.736 27.456 115.024 27.288 115.288 27.12V14.88C115.12 14.688 114.856 14.52 114.496 14.376C114.16 14.232 113.764 14.16 113.308 14.16C112.708 14.16 112.156 14.352 111.652 14.736C111.172 15.12 110.788 15.816 110.5 16.824C110.212 17.808 110.068 19.2 110.068 21C110.068 22.8 110.212 24.192 110.5 25.176C110.788 26.16 111.172 26.856 111.652 27.264C112.156 27.648 112.708 27.84 113.308 27.84ZM129.332 30.36C128.324 30.36 127.388 30.204 126.524 29.892C125.684 29.58 125.012 29.016 124.508 28.2C124.004 27.36 123.752 26.16 123.752 24.6V12H128.072V24.6C128.072 25.848 128.372 26.7 128.972 27.156C129.572 27.612 130.232 27.84 130.952 27.84C131.408 27.84 131.804 27.768 132.14 27.624C132.5 27.456 132.764 27.288 132.932 27.12V12H137.252V30H134.192L133.652 28.92H133.472C133.088 29.28 132.572 29.616 131.924 29.928C131.276 30.216 130.412 30.36 129.332 30.36ZM34.3313 68.36C33.3233 68.36 32.3873 68.204 31.5232 67.892C30.6832 67.58 30.0112 67.016 29.5072 66.2C29.0032 65.36 28.7512 64.16 28.7512 62.6C28.7512 61.04 29.0032 59.852 29.5072 59.036C30.0352 58.196 30.7432 57.62 31.6312 57.308C32.5432 56.996 33.5633 56.84 34.6913 56.84C35.2433 56.84 35.7713 56.876 36.2753 56.948C36.8033 57.02 37.2953 57.104 37.7513 57.2V55.76C37.7513 54.32 37.4153 53.36 36.7433 52.88C36.0713 52.4 35.1473 52.16 33.9712 52.16H30.3712V50.36C30.9232 50.168 31.5952 50 32.3872 49.856C33.2033 49.712 33.9713 49.64 34.6913 49.64C36.3232 49.64 37.6793 49.808 38.7593 50.144C39.8633 50.456 40.6913 51.056 41.2433 51.944C41.7953 52.808 42.0713 54.08 42.0713 55.76V68H39.0113L38.4712 66.92H38.2912C37.9072 67.28 37.3913 67.616 36.7433 67.928C36.1193 68.216 35.3153 68.36 34.3313 68.36ZM35.7713 65.84C36.2273 65.84 36.6233 65.768 36.9592 65.624C37.3193 65.456 37.5833 65.288 37.7513 65.12V59.36H35.7713C35.3633 59.36 34.9433 59.456 34.5112 59.648C34.1033 59.84 33.7553 60.176 33.4672 60.656C33.2033 61.112 33.0713 61.76 33.0713 62.6C33.0713 63.44 33.2033 64.1 33.4672 64.58C33.7553 65.036 34.1033 65.36 34.5112 65.552C34.9433 65.744 35.3633 65.84 35.7713 65.84ZM52.1372 68.36C50.8892 68.36 49.8092 68.264 48.8972 68.072C48.0092 67.904 47.1092 67.64 46.1972 67.28V42.8H50.5172V50.54C50.9012 50.276 51.3452 50.06 51.8492 49.892C52.3772 49.724 52.9532 49.64 53.5772 49.64C54.8972 49.64 56.0372 49.952 56.9972 50.576C57.9812 51.176 58.7372 52.16 59.2652 53.528C59.7932 54.896 60.0572 56.72 60.0572 59C60.0572 61.28 59.7692 63.104 59.1932 64.472C58.6412 65.84 57.7772 66.836 56.6012 67.46C55.4252 68.06 53.9372 68.36 52.1372 68.36ZM50.5172 65.84H52.1372C52.8572 65.84 53.4812 65.648 54.0092 65.264C54.5612 64.856 54.9812 64.16 55.2692 63.176C55.5812 62.192 55.7372 60.8 55.7372 59C55.7372 57.2 55.5932 55.808 55.3052 54.824C55.0172 53.816 54.6212 53.12 54.1172 52.736C53.6372 52.352 53.0972 52.16 52.4972 52.16C52.0412 52.16 51.6452 52.232 51.3092 52.376C50.9732 52.52 50.7092 52.688 50.5172 52.88V65.84ZM69.4214 68.36C67.8614 68.36 66.5414 68.06 65.4614 67.46C64.4054 66.836 63.6014 65.84 63.0494 64.472C62.4974 63.104 62.2214 61.28 62.2214 59C62.2214 56.72 62.4974 54.896 63.0494 53.528C63.6014 52.16 64.4054 51.176 65.4614 50.576C66.5414 49.952 67.8614 49.64 69.4214 49.64C70.9814 49.64 72.2894 49.952 73.3454 50.576C74.4254 51.176 75.2414 52.16 75.7934 53.528C76.3454 54.896 76.6214 56.72 76.6214 59C76.6214 61.28 76.3454 63.104 75.7934 64.472C75.2414 65.84 74.4254 66.836 73.3454 67.46C72.2894 68.06 70.9814 68.36 69.4214 68.36ZM69.4214 66.02C69.9734 66.02 70.4654 65.828 70.8974 65.444C71.3294 65.036 71.6654 64.328 71.9054 63.32C72.1694 62.288 72.3014 60.848 72.3014 59C72.3014 57.128 72.1694 55.688 71.9054 54.68C71.6654 53.672 71.3294 52.976 70.8974 52.592C70.4654 52.184 69.9734 51.98 69.4214 51.98C68.8934 51.98 68.4014 52.184 67.9454 52.592C67.5134 52.976 67.1654 53.672 66.9014 54.68C66.6614 55.688 66.5414 57.128 66.5414 59C66.5414 60.848 66.6614 62.288 66.9014 63.32C67.1654 64.328 67.5134 65.036 67.9454 65.444C68.4014 65.828 68.8934 66.02 69.4214 66.02ZM79.6983 68V50H82.7583L83.2983 51.44H83.4783C83.8623 51.08 84.3783 50.756 85.0263 50.468C85.6743 50.156 86.5383 50 87.6183 50H89.9583V53.06H85.9983C85.5423 53.06 85.1463 53.132 84.8103 53.276C84.4743 53.42 84.2103 53.588 84.0183 53.78V68H79.6983ZM96.2794 68.36C95.2714 68.36 94.3354 68.204 93.4714 67.892C92.6314 67.58 91.9594 67.016 91.4554 66.2C90.9514 65.36 90.6994 64.16 90.6994 62.6C90.6994 61.04 90.9514 59.852 91.4554 59.036C91.9834 58.196 92.6914 57.62 93.5794 57.308C94.4914 56.996 95.5114 56.84 96.6394 56.84C97.1914 56.84 97.7194 56.876 98.2234 56.948C98.7514 57.02 99.2434 57.104 99.6994 57.2V55.76C99.6994 54.32 99.3634 53.36 98.6914 52.88C98.0194 52.4 97.0954 52.16 95.9194 52.16H92.3194V50.36C92.8714 50.168 93.5434 50 94.3354 49.856C95.1514 49.712 95.9194 49.64 96.6394 49.64C98.2714 49.64 99.6274 49.808 100.707 50.144C101.811 50.456 102.639 51.056 103.191 51.944C103.743 52.808 104.019 54.08 104.019 55.76V68H100.959L100.419 66.92H100.239C99.8554 67.28 99.3394 67.616 98.6914 67.928C98.0674 68.216 97.2634 68.36 96.2794 68.36ZM97.7194 65.84C98.1754 65.84 98.5714 65.768 98.9074 65.624C99.2674 65.456 99.5314 65.288 99.6994 65.12V59.36H97.7194C97.3114 59.36 96.8914 59.456 96.4594 59.648C96.0514 59.84 95.7034 60.176 95.4154 60.656C95.1514 61.112 95.0194 61.76 95.0194 62.6C95.0194 63.44 95.1514 64.1 95.4154 64.58C95.7034 65.036 96.0514 65.36 96.4594 65.552C96.8914 65.744 97.3114 65.84 97.7194 65.84ZM113.905 68.36C112.897 68.36 111.961 68.204 111.097 67.892C110.257 67.556 109.585 66.956 109.081 66.092C108.577 65.204 108.325 63.92 108.325 62.24V53.06H106.345V50.36H108.325V46.04H112.645V50.36H117.505V52.34C116.977 52.508 116.293 52.676 115.453 52.844C114.613 52.988 113.737 53.06 112.825 53.06H112.645V62.24C112.645 63.2 112.765 63.944 113.005 64.472C113.245 64.976 113.545 65.336 113.905 65.552C114.265 65.744 114.625 65.84 114.985 65.84H118.225V67.64C117.937 67.76 117.541 67.88 117.037 68C116.533 68.096 116.005 68.18 115.453 68.252C114.901 68.324 114.385 68.36 113.905 68.36ZM126.342 68.36C124.782 68.36 123.462 68.06 122.382 67.46C121.326 66.836 120.522 65.84 119.97 64.472C119.418 63.104 119.142 61.28 119.142 59C119.142 56.72 119.418 54.896 119.97 53.528C120.522 52.16 121.326 51.176 122.382 50.576C123.462 49.952 124.782 49.64 126.342 49.64C127.902 49.64 129.21 49.952 130.266 50.576C131.346 51.176 132.162 52.16 132.714 53.528C133.266 54.896 133.542 56.72 133.542 59C133.542 61.28 133.266 63.104 132.714 64.472C132.162 65.84 131.346 66.836 130.266 67.46C129.21 68.06 127.902 68.36 126.342 68.36ZM126.342 66.02C126.894 66.02 127.386 65.828 127.818 65.444C128.25 65.036 128.586 64.328 128.826 63.32C129.09 62.288 129.222 60.848 129.222 59C129.222 57.128 129.09 55.688 128.826 54.68C128.586 53.672 128.25 52.976 127.818 52.592C127.386 52.184 126.894 51.98 126.342 51.98C125.814 51.98 125.322 52.184 124.866 52.592C124.434 52.976 124.086 53.672 123.822 54.68C123.582 55.688 123.462 57.128 123.462 59C123.462 60.848 123.582 62.288 123.822 63.32C124.086 64.328 124.434 65.036 124.866 65.444C125.322 65.828 125.814 66.02 126.342 66.02ZM136.619 68V50H139.679L140.219 51.44H140.399C140.783 51.08 141.299 50.756 141.947 50.468C142.595 50.156 143.459 50 144.539 50H146.879V53.06H142.919C142.463 53.06 142.067 53.132 141.731 53.276C141.395 53.42 141.131 53.588 140.939 53.78V68H136.619ZM154.632 75.56C153.744 75.56 152.88 75.476 152.04 75.308C151.2 75.164 150.504 75.008 149.952 74.84V73.04H153.912C155.256 73.04 156.276 72.62 156.972 71.78C157.692 70.94 158.052 69.44 158.052 67.28C157.596 67.64 157.056 67.904 156.432 68.072C155.832 68.264 155.172 68.36 154.452 68.36C153.444 68.36 152.508 68.204 151.644 67.892C150.804 67.58 150.132 67.016 149.628 66.2C149.124 65.36 148.872 64.16 148.872 62.6V50H153.192V62.6C153.192 63.848 153.492 64.7 154.092 65.156C154.692 65.612 155.352 65.84 156.072 65.84C156.528 65.84 156.924 65.768 157.26 65.624C157.62 65.456 157.884 65.288 158.052 65.12V50H162.372V66.56C162.372 68.72 162.084 70.46 161.508 71.78C160.956 73.1 160.104 74.06 158.952 74.66C157.824 75.26 156.384 75.56 154.632 75.56Z" fill="#005308"/>
<path d="M2 5L2.00001 68" stroke="#005308" stroke-width="3"/>
<g filter="url(#filter0_i_784_51)">
<path fill-rule="evenodd" clip-rule="evenodd" d="M170.999 7.72097C174.628 11.3491 174.628 17.2318 171 20.8602L157.86 7.7215C161.488 4.09304 167.371 4.0928 170.999 7.72097ZM158.199 8.07864L171 20.8602L157.861 34L144.731 20.8707C144.728 20.8676 144.725 20.8644 144.721 20.8613C141.093 17.2331 141.093 11.3505 144.721 7.72201C148.349 4.09356 154.232 4.09332 157.86 7.7215C157.977 7.83826 158.09 7.95735 158.199 8.07864Z" fill="#FC9696"/>
</g>
<defs>
<filter id="filter0_i_784_51" x="142" y="5" width="31.721" height="32" filterUnits="userSpaceOnUse" color-interpolation-filters="sRGB">
<feFlood flood-opacity="0" result="BackgroundImageFix"/>
<feBlend mode="normal" in="SourceGraphic" in2="BackgroundImageFix" result="shape"/>
<feColorMatrix in="SourceAlpha" type="matrix" values="0 0 0 0 0 0 0 0 0 0 0 0 0 0 0 0 0 0 127 0" result="hardAlpha"/>
<feOffset dy="4"/>
<feGaussianBlur stdDeviation="1.5"/>
<feComposite in2="hardAlpha" operator="arithmetic" k2="-1" k3="1"/>
<feColorMatrix type="matrix" values="0 0 0 0 0 0 0 0 0 0 0 0 0 0 0 0 0 0 0.25 0"/>
<feBlend mode="normal" in2="shape" result="effect1_innerShadow_784_51"/>
</filter>
</defs>
</svg>
